<svg xmlns="http://www.w3.org/2000/svg" viewBox="0 0 1920 1080"><defs><style>.a{fill:#f7f8f9;}.b,.c{fill:#0098bd;}.c{opacity:0.75;}</style></defs><title>CODE-CRAFT-V2-01</title><rect class="a" x="-7" y="-6" width="1930" height="1092"/><path class="b" d="M715.31,665.68c0-19.12-9.32-31.12-27.62-31.12-16.32,0-27.63,11.65-27.63,28.32v28.21c0,16.78,11.31,28.44,27.63,28.44,18.65,0,27.62-11.07,27.62-32H699.23v1c0,12-4.08,15.61-11.54,15.61-5.6,0-11.43-2.91-11.43-12.58V662.41c0-9.44,5.83-12.47,11.43-12.47s11.54,2.45,11.54,14.57v1.17Z"/><path class="b" d="M757.5,634.56c-16.32,0-27.62,11.77-27.62,28.55v28c0,16.67,11.3,28.32,27.62,28.32s27.63-11.65,27.63-28.32v-28C785.13,646.33,773.7,634.56,757.5,634.56ZM769,691.67C769,701.11,763,704,757.5,704c-6.06,0-11.42-3.27-11.42-12.47V662.41c0-9.44,5.71-12.47,11.42-12.47,6.06,0,11.54,3.38,11.54,12.59Z"/><path class="b" d="M830.46,636.07h-27v82.18h27c16.32,0,27.63-10.61,27.63-30.42V666.14C858.09,646.1,846.78,636.07,830.46,636.07Zm11.66,47.79c0,16.09-5.83,19.12-13.52,19.12h-9.1V651.46h9.1c11.19,0,13.52,7.57,13.52,16.43Z"/><polygon class="b" points="876.96 718.25 923.12 718.25 923.12 702.86 893.05 702.86 893.05 684.21 915.31 684.21 915.31 670.23 893.05 670.23 893.05 651.58 923.12 651.58 923.12 636.07 876.96 636.07 876.96 718.25"/><path class="c" d="M992.58,665.68c0-19.12-9.32-31.12-27.62-31.12-16.32,0-27.63,11.65-27.63,28.32v28.21c0,16.78,11.31,28.44,27.63,28.44,18.65,0,27.62-11.07,27.62-32H976.5v1c0,12-4.08,15.61-11.54,15.61-5.59,0-11.42-2.91-11.42-12.58V662.41c0-9.44,5.83-12.47,11.42-12.47s11.54,2.45,11.54,14.57v1.17Z"/><path class="c" d="M1036.17,636.07h-26.11v82.18h16.09V697h8.39l11.07,21.22h17.61l-13.88-25c8.86-4,14.34-12.47,14.34-25.17V665.8C1063.68,646.68,1052.61,636.07,1036.17,636.07Zm11.54,31.82c0,10.84-6.53,13.87-13.52,13.87h-8v-30.3h8c7.23,0,13.52,2.8,13.52,14.1Z"/><path class="c" d="M1099.34,636.07l-24.13,82.18h16.32l4.55-16.2H1120l4.32,16.2h16.43l-23.78-82.18Zm.12,52.1L1108.2,656l8.39,32.17Z"/><polygon class="c" points="1154.47 718.01 1170.55 718.01 1170.55 684.21 1191.18 684.21 1191.18 670.23 1170.55 670.23 1170.55 651.58 1198.76 651.58 1198.76 636.07 1154.47 636.07 1154.47 718.01"/><polygon class="c" points="1210.64 636.07 1210.64 651.58 1227.78 651.58 1227.78 718.25 1243.87 718.25 1243.87 651.58 1261 651.58 1261 636.07 1210.64 636.07"/><path class="b" d="M895.73,529.78c-12.74,0-14.89-4-14.89-14.06V449c0-9.92,2.48-14.06,14.89-14.06V415.44C867.6,415.44,859,427,859,453.5v57.75c0,26.48,8.6,38.06,36.73,38.06Z"/><rect class="b" x="910.1" y="551.62" width="76.28" height="17.05"/><polygon class="b" points="960.47 362 936.81 362 921.75 416.77 938.46 416.77 960.47 362"/><polygon class="b" points="956.34 416.77 973.05 416.77 995.05 362 971.39 362 956.34 416.77"/><path class="b" d="M1034,436.13c-3.79-14.25-13.9-20.69-34.88-20.69V435c12.42,0,14.9,4.14,14.9,14.06v66.69c0,10.09-2.15,14.06-14.9,14.06v19.53c25.05,0,34.61-9.2,36.41-29.9,26.58-.53,34.8-12.18,34.8-38v-7.2C1070.3,447.84,1061.77,436.24,1034,436.13Zm14.49,49.71c0,9.47-1.89,13.55-12.63,14V455.7c10.45.51,12.63,4.72,12.63,14Z"/></svg>