<svg xmlns="http://www.w3.org/2000/svg" viewBox="0 0 1920 1080"><defs><style>.a{fill:#112a46;}.b{fill:#89bbd0;}</style></defs><title>CODE-CRAFT-V2-01</title><rect class="a" x="-5" y="-6" width="1930" height="1092"/><path class="b" d="M977.19,447.89c0-27.62-13.47-45-39.91-45-23.58,0-39.91,16.84-39.91,40.93V484.6c0,24.25,16.33,41.09,39.91,41.09,27,0,39.91-16,39.91-46.31H954v1.52c0,17.34-5.89,22.56-16.67,22.56-8.08,0-16.5-4.21-16.5-18.19v-42.1c0-13.64,8.42-18,16.5-18S954,428.69,954,446.2v1.69Z"/><path class="b" d="M1038.15,525.53c23.41,0,39.91-16.85,39.91-40.93V444.18c0-24.25-16.5-41.26-39.91-41.26-23.58,0-39.91,17-39.91,41.26V484.6C998.24,508.68,1014.57,525.53,1038.15,525.53Zm-16.51-82.36c0-13.64,8.26-18,16.51-18,8.76,0,16.67,4.89,16.67,18.19v42.1c0,13.64-8.76,17.85-16.67,17.85-8.76,0-16.51-4.71-16.51-18Z"/><path class="b" d="M1183.48,479.89V448.56c0-29-16.34-43.45-39.92-43.45h-39.07V523.84h39.07C1167.14,523.84,1183.48,508.51,1183.48,479.89Zm-55.75,21.89V427.34h13.14c16.16,0,19.53,11,19.53,23.75v23.07c0,23.24-8.42,27.62-19.53,27.62Z"/><polygon class="b" points="1210.75 523.84 1277.44 523.84 1277.44 501.61 1233.99 501.61 1233.99 474.67 1266.15 474.67 1266.15 454.46 1233.99 454.46 1233.99 427.51 1277.44 427.51 1277.44 405.11 1210.75 405.11 1210.75 523.84"/><path class="b" d="M977.19,599.91c0-27.62-13.47-45-39.91-45-23.58,0-39.91,16.85-39.91,40.93v40.75c0,24.26,16.33,41.1,39.91,41.1,27,0,39.91-16,39.91-46.32H954v1.52c0,17.34-5.89,22.57-16.67,22.57-8.08,0-16.5-4.21-16.5-18.19V595.19c0-13.64,8.42-18,16.5-18S954,580.71,954,598.23v1.68Z"/><path class="b" d="M1040.17,557.14h-37.72V675.86h23.24V645.21h12.12l16,30.65h25.43l-20-36c12.8-5.72,20.71-18,20.71-36.37v-3.37C1079.91,572.46,1063.92,557.14,1040.17,557.14Zm16.67,46c0,15.66-9.43,20-19.53,20h-11.62V579.36h11.62c10.44,0,19.53,4,19.53,20.38Z"/><path class="b" d="M1131.44,557.14l-34.86,118.72h23.57l6.57-23.41h34.53l6.23,23.41h23.74l-34.35-118.72Zm.17,75.27,12.63-46.48,12.12,46.48Z"/><polygon class="b" points="1211.08 675.52 1234.32 675.52 1234.32 626.69 1264.13 626.69 1264.13 606.48 1234.32 606.48 1234.32 579.53 1275.08 579.53 1275.08 557.14 1211.08 557.14 1211.08 675.52"/><polygon class="b" points="1292.25 557.14 1292.25 579.53 1317 579.53 1317 675.86 1340.24 675.86 1340.24 579.53 1365 579.53 1365 557.14 1292.25 557.14"/><path class="b" d="M553,522.52v75.69c0,34.69,11.28,49.87,48.14,49.87V622.49c-16.7,0-19.51-5.2-19.51-18.43V516.67c0-13,3.25-18.44,19.51-18.44V472.64C564.28,472.64,553,487.82,553,522.52Z"/><rect class="b" x="619.97" y="651.12" width="99.97" height="22.34"/><polygon class="b" points="680.56 474.39 702.46 474.39 731.31 402.61 700.29 402.61 680.56 474.39"/><polygon class="b" points="685.98 402.61 654.97 402.61 635.24 474.39 657.14 474.39 685.98 402.61"/><path class="b" d="M782.31,499.76c-5-18.67-18.23-27.12-45.71-27.12v25.59c16.27,0,19.52,5.43,19.52,18.44v87.39c0,13.23-2.82,18.43-19.52,18.43v25.59c32.83,0,45.36-12.05,47.71-39.18,34.84-.7,45.61-16,45.61-49.85v-9.43C829.92,515.1,818.74,499.91,782.31,499.76Zm19,65.15c0,12.4-2.48,17.75-16.55,18.37V525.41c13.7.66,16.55,6.18,16.55,18.36Z"/></svg>