<?xml version="1.0" encoding="UTF-8" standalone="no"?>
<svg
   xmlns:dc="http://purl.org/dc/elements/1.1/"
   xmlns:cc="http://creativecommons.org/ns#"
   xmlns:rdf="http://www.w3.org/1999/02/22-rdf-syntax-ns#"
   xmlns:svg="http://www.w3.org/2000/svg"
   xmlns="http://www.w3.org/2000/svg"
   xmlns:sodipodi="http://sodipodi.sourceforge.net/DTD/sodipodi-0.dtd"
   xmlns:inkscape="http://www.inkscape.org/namespaces/inkscape"
   viewBox="0 0 180 200"
   version="1.1"
   id="svg126"
   sodipodi:docname="cclogo.svg"
   inkscape:version="0.92.2 5c3e80d, 2017-08-06">
  <metadata
     id="metadata130">
    <rdf:RDF>
      <cc:Work
         rdf:about="">
        <dc:format>image/svg+xml</dc:format>
        <dc:type
           rdf:resource="http://purl.org/dc/dcmitype/StillImage" />
      </cc:Work>
    </rdf:RDF>
  </metadata>
  <sodipodi:namedview
     pagecolor="#ffffff"
     bordercolor="#666666"
     borderopacity="1"
     objecttolerance="10"
     gridtolerance="10"
     guidetolerance="10"
     inkscape:pageopacity="0"
     inkscape:pageshadow="2"
     inkscape:window-width="640"
     inkscape:window-height="480"
     id="namedview128"
     showgrid="true"
     inkscape:zoom="0.69259259"
     inkscape:cx="108.48103"
     inkscape:cy="911.1509"
     inkscape:window-x="1192"
     inkscape:window-y="949"
     inkscape:window-maximized="0"
     inkscape:current-layer="svg126">
    <inkscape:grid
       type="xygrid"
       id="grid132" />
  </sodipodi:namedview>
  <defs
     id="defs112">
    <style
       id="style110">
            .b{fill:#c331b4;}.c{opacity:0.75;}
        </style>
  </defs>
  <title
     id="title114">
        CODE-CRAFT-V2-01
    </title>
  <path
     d="m 19.6,98 v 52.39 c 0,24 7.8,34.52 33.32,34.52 V 167.2 c -11.56,0 -13.51,-3.61 -13.51,-12.76 V 93.95 c 0,-9 2.25,-12.76 13.51,-12.76 V 63.48 C 27.4,63.48 19.6,73.99 19.6,98 Z"
     class="b"
     id="path116"
     inkscape:connector-curvature="0"
     style="fill:#c331b4" />
  <rect
     width="69.199997"
     height="15.46"
     x="65.949982"
     y="187.01001"
     class="b"
     id="rect118"
     style="fill:#c331b4" />
  <polygon
     points="609.08,493.89 629.04,444.2 607.58,444.2 593.92,493.89 "
     class="b"
     id="polygon120"
     transform="translate(-517.4,-429.2)"
     style="fill:#c331b4" />
  <polygon
     points="638.95,444.2 625.29,493.89 640.45,493.89 660.41,444.2 "
     class="b"
     id="polygon122"
     transform="translate(-517.4,-429.2)"
     style="fill:#c331b4" />
  <path
     d="M 178.31,82.25 C 174.87,69.32 165.7,63.48 146.68,63.48 v 17.71 c 11.25,0 13.51,3.75 13.51,12.76 v 60.49 c 0,9.15 -2,12.76 -13.51,12.76 v 17.71 c 22.72,0 31.39,-8.34 33,-27.12 24.11,-0.49 31.56,-11 31.56,-34.5 v -6.49 c 0.02,-23.93 -7.71,-34.45 -32.93,-34.55 z m 13.14,45.09 c 0,8.58 -1.71,12.29 -11.45,12.72 V 100 c 9.48,0.46 11.45,4.28 11.45,12.71 z"
     class="b"
     id="path124"
     inkscape:connector-curvature="0"
     style="fill:#c331b4" />
</svg>
